<svg width="54" height="54" viewBox="0 0 54 54" fill="none" xmlns="http://www.w3.org/2000/svg">
<path d="M45.5625 8.4375H8.43753C7.54242 8.4375 6.68398 8.79308 6.05104 9.42601C5.41811 10.059 5.06253 10.9174 5.06253 11.8125V45.5625C5.06081 45.8505 5.13375 46.134 5.27423 46.3854C5.41471 46.6367 5.61793 46.8474 5.86409 46.9969C6.10827 47.1504 6.38771 47.2387 6.67575 47.2535C6.96379 47.2683 7.2508 47.209 7.5094 47.0813L13.5 44.0648L19.4907 47.0813C19.7276 47.1953 19.9871 47.2545 20.25 47.2545C20.513 47.2545 20.7725 47.1953 21.0094 47.0813L27 44.0648L32.9907 47.0813C33.2284 47.1924 33.4876 47.25 33.75 47.25C34.0125 47.25 34.2717 47.1924 34.5094 47.0813L40.5 44.0648L46.4907 47.0813C46.7492 47.209 47.0363 47.2683 47.3243 47.2535C47.6123 47.2387 47.8918 47.1504 48.136 46.9969C48.3821 46.8474 48.5854 46.6367 48.7258 46.3854C48.8663 46.134 48.9392 45.8505 48.9375 45.5625V11.8125C48.9375 10.9174 48.5819 10.059 47.949 9.42601C47.3161 8.79308 46.4576 8.4375 45.5625 8.4375ZM45.5625 42.8414L41.2594 40.6688C41.0225 40.5547 40.763 40.4955 40.5 40.4955C40.2371 40.4955 39.9776 40.5547 39.7407 40.6688L33.75 43.6852L27.7594 40.6688C27.5217 40.5576 27.2625 40.5 27 40.5C26.7376 40.5 26.4784 40.5576 26.2407 40.6688L20.25 43.6852L14.2594 40.6688C14.0225 40.5547 13.763 40.4955 13.5 40.4955C13.2371 40.4955 12.9776 40.5547 12.7407 40.6688L8.43753 42.8414V11.8125H45.5625V42.8414ZM14.4282 35.2688C14.8323 35.4617 15.2956 35.4904 15.7205 35.3488C16.1454 35.2072 16.4987 34.9063 16.7063 34.5094L17.9086 32.0625H25.9664L27.1688 34.5094C27.3122 34.7887 27.5298 35.0231 27.7978 35.1868C28.0657 35.3506 28.3735 35.4373 28.6875 35.4375C28.9493 35.4319 29.2074 35.3746 29.4469 35.2688C29.8438 35.0612 30.1447 34.7078 30.2863 34.2829C30.428 33.8581 30.3993 33.3948 30.2063 32.9906L23.4563 19.4906C23.3125 19.2117 23.0948 18.9778 22.8269 18.8145C22.559 18.6512 22.2513 18.5648 21.9375 18.5648C21.6238 18.5648 21.3161 18.6512 21.0482 18.8145C20.7803 18.9778 20.5625 19.2117 20.4188 19.4906L13.6688 32.9906C13.4758 33.3948 13.4471 33.8581 13.5887 34.2829C13.7303 34.7078 14.0313 35.0612 14.4282 35.2688ZM21.9375 24.0258L24.2789 28.6875H19.5961L21.9375 24.0258ZM30.375 27C30.375 26.5525 30.5528 26.1232 30.8693 25.8068C31.1858 25.4903 31.615 25.3125 32.0625 25.3125H34.5938V22.7813C34.5938 22.3337 34.7716 21.9045 35.088 21.588C35.4045 21.2715 35.8337 21.0938 36.2813 21.0938C36.7288 21.0938 37.1581 21.2715 37.4745 21.588C37.791 21.9045 37.9688 22.3337 37.9688 22.7813V25.3125H40.5C40.9476 25.3125 41.3768 25.4903 41.6933 25.8068C42.0097 26.1232 42.1875 26.5525 42.1875 27C42.1875 27.4476 42.0097 27.8768 41.6933 28.1932C41.3768 28.5097 40.9476 28.6875 40.5 28.6875H37.9688V31.2188C37.9688 31.6663 37.791 32.0955 37.4745 32.412C37.1581 32.7285 36.7288 32.9063 36.2813 32.9063C35.8337 32.9063 35.4045 32.7285 35.088 32.412C34.7716 32.0955 34.5938 31.6663 34.5938 31.2188V28.6875H32.0625C31.615 28.6875 31.1858 28.5097 30.8693 28.1932C30.5528 27.8768 30.375 27.4476 30.375 27Z" fill="#1FA0C9"/>
</svg>
